<svg clip-rule="evenodd" fill-rule="evenodd" height="512" image-rendering="optimizeQuality" shape-rendering="geometricPrecision" text-rendering="geometricPrecision" viewBox="0 0 512 512" width="512" xmlns="http://www.w3.org/2000/svg"><g id="Layer_x0020_1"><g id="_538791840"><path d="m467 268h-222l-80 85-49 126 5 2c34 20 74 31 116 31 131 0 237-106 237-236 0-5-3-8-7-8z" fill="#ffc843"/><path d="m116 479c-69-42-116-117-116-204 0-130 107-236 237-237 4 0 8 4 8 8v222z" fill="#0071ce"/><path d="m505 244h-230c-4 0-7-3-7-7v-229c0-5 3-8 7-8 131 0 237 107 237 237 0 4-3 7-7 7z" fill="#ff6d68"/><g fill="#bf534f"><path d="m308 112c-2 0-5-1-6-3-2-3-2-7 1-10l53-47c3-2 7-2 10 1s3 7-1 10l-53 47c-1 1-3 2-4 2z"/><path d="m329 175c-2 0-4-1-5-2-3-3-3-8 1-11l81-71c3-3 7-3 10 1 3 3 3 7-1 10l-81 72c-1 0-3 1-5 1z"/><path d="m380 214c-3 0-5 0-6-2-2-3-2-8 1-11l53-46c3-3 7-3 10 1 3 3 3 7-1 10l-53 47c-1 1-3 1-4 1z"/></g><path d="m237 501c-42 0-82-11-116-31l-5 9 5 2c34 20 74 31 116 31 131 0 237-106 237-236 0-1 0-2 0-2-5 126-110 227-237 227z" fill="#f9a936"/><path d="m116 468c-68-41-114-114-116-198v5c0 87 47 162 116 204l5-9h-1z" fill="#0a65b1"/><path d="m505 233h-230c-4 0-7-3-7-7v11c0 4 3 7 7 7h230c4 0 7-3 7-7 0-3 0-6 0-9-1 3-4 5-7 5z" fill="#bf534f"/></g></g></svg>